<?xml version="1.0" encoding="UTF-8"?>
<svg width="528px" height="528px" viewBox="0 0 528 528" version="1.1" xmlns="http://www.w3.org/2000/svg" xmlns:xlink="http://www.w3.org/1999/xlink">
    <title>RadavistFavicon2024</title>
    <g id="Page-1" stroke="none" stroke-width="1" fill="none" fill-rule="evenodd">
        <g id="RadavistFavicon2024" fill-rule="nonzero">
            <rect id="BACKGROUND" fill="#D5CCAF" x="0" y="0" width="528" height="528"></rect>
            <g id="LIGHTLY" transform="translate(140.081633, 448.261224)" fill="#2D2A26">
                <path d="M8.38334694,2.06889796 L2.06889796,2.15510204 L1.93959184,24.8914286 C1.87493878,39.2444082 1.8964898,47.7355102 2.04734694,47.8648163 C2.15510204,48.0156735 3.62057143,48.1234286 5.43085714,48.1234286 C7.24114286,48.1234286 14.1590204,48.1665306 20.8829388,48.1880816 L28.3826939,48.2742857 L28.533551,47.7355102 C28.5982041,47.4337959 28.6844082,45.429551 28.7059592,43.2313469 C28.7059592,40.1926531 28.6628571,39.2228571 28.4257959,39.2228571 C28.2749388,39.2013061 27.9301224,39.1582041 21.8958367,39.115102 C14.0297143,39.050449 10.603102,38.7702857 10.603102,38.7702857 C10.603102,38.7702857 10.516898,36.6367347 10.516898,32.2834286 L10.581551,29.8050612 L10.6246531,20.6889796 C10.6246531,20.6889796 10.603102,15.3012245 10.4306939,2.112 L8.36179592,2.06889796 L8.38334694,2.06889796 Z" id="Path"></path>
                <path d="M38.037551,2.24130612 C38.037551,2.24130612 38.016,12.5857959 37.994449,25.0207347 C37.9513469,40.2357551 38.016,47.7355102 38.1453061,47.8863673 C38.2961633,48.0372245 39.8909388,48.1018776 42.4124082,48.0587755 L46.442449,47.9941224 L46.5933061,46.1838367 C46.7010612,44.8045714 46.8950204,4.26710204 46.7872653,2.39216327 C46.7657143,2.04734694 46.420898,2.0042449 42.3908571,2.0042449 C39.9986939,2.0042449 38.037551,2.09044898 38.037551,2.19820408 L38.037551,2.19820408 L38.037551,2.24130612 Z" id="Path"></path>
                <path d="M139.82302,46.2269388 L139.650612,48.0156735 L135.642122,48.0587755 C133.099102,48.1018776 131.504327,48.0372245 131.37502,47.8863673 C131.224163,47.7139592 131.15951,41.205551 131.202612,27.9732245 C127.086367,27.9732245 118.164245,27.9301224 111.979102,27.8654694 C111.936,37.1970612 111.892898,45.6450612 111.828245,46.2915918 L111.655837,48.0803265 L107.647347,48.1234286 C105.104327,48.1665306 103.509551,48.1018776 103.380245,47.9510204 C103.229388,47.7786122 103.164735,40.2788571 103.207837,25.0638367 C103.229388,12.628898 103.250939,2.37061224 103.250939,2.28440816 C103.250939,2.19820408 105.212082,2.09044898 107.625796,2.09044898 C111.655837,2.09044898 112.000653,2.13355102 112.022204,2.47836735 C112.065306,3.25420408 112.043755,10.6246531 112.000653,19.1157551 C113.961796,19.1157551 116.267755,19.1157551 118.983184,19.1373061 C124.090776,19.1588571 128.594939,19.1588571 131.181061,19.1588571 C131.202612,9.504 131.224163,2.28440816 131.224163,2.19820408 C131.224163,2.112 133.185306,2.0042449 135.59902,2.0042449 C139.629061,2.0042449 139.973878,2.04734694 139.995429,2.39216327 C140.081633,4.26710204 139.909224,44.8045714 139.801469,46.1838367 L139.82302,46.2269388 Z" id="Path"></path>
                <path d="M193.549714,2.06889796 L187.235265,2.15510204 L187.105959,24.8914286 C187.041306,39.2444082 187.062857,47.7355102 187.213714,47.8648163 C187.321469,48.0156735 188.786939,48.1234286 190.597224,48.1234286 C192.40751,48.1234286 199.325388,48.1665306 206.049306,48.1880816 L213.549061,48.2742857 L213.699918,47.7355102 C213.764571,47.4337959 213.850776,45.429551 213.872327,43.2313469 C213.872327,40.1926531 213.829224,39.2228571 213.592163,39.2228571 C213.441306,39.2013061 213.09649,39.1582041 207.062204,39.115102 C199.196082,39.050449 195.769469,38.7702857 195.769469,38.7702857 C195.769469,38.7702857 195.683265,36.6367347 195.683265,32.2834286 L195.747918,29.8050612 L195.79102,20.6889796 C195.79102,20.6889796 195.769469,15.3012245 195.597061,2.112 L193.528163,2.06889796 L193.549714,2.06889796 Z" id="Path"></path>
                <path d="M177.580408,10.7539592 C177.494204,10.8617143 175.834776,10.9263673 167.753143,10.9263673 C167.731592,23.3613061 167.602286,45.364898 167.516082,46.3562449 L167.343673,48.1665306 L163.335184,48.2096327 C160.813714,48.2527347 159.218939,48.1880816 159.068082,48.0372245 C158.917224,47.8648163 158.874122,40.3650612 158.895673,25.1500408 C158.895673,19.7838367 158.917224,14.805551 158.917224,10.8832653 C151.740735,10.8617143 148.745143,10.8401633 148.68049,10.8401633 C148.615837,10.8401633 148.529633,8.85746939 148.529633,6.46530612 C148.529633,2.43526531 148.551184,2.06889796 148.809796,2.04734694 C150.189061,1.96114286 175.296,2.13355102 176.308898,2.26285714 L177.62351,2.43526531 L177.666612,6.4437551 C177.709714,8.96522449 177.645061,10.56 177.558857,10.7108571 L177.580408,10.7539592 Z" id="Path"></path>
                <path d="M225.76849,2.45681633 L234.130286,18.4261224 C234.238041,18.6200816 234.518204,18.6200816 234.604408,18.4261224 L242.901551,2.45681633 C242.901551,2.45681633 243.030857,2.30595918 243.138612,2.30595918 L252.362449,2.30595918 C252.556408,2.30595918 252.685714,2.52146939 252.59951,2.69387755 L238.656,30.2145306 C238.656,30.2145306 238.548245,31.1196735 238.548245,31.1627755 L238.634449,48.4251429 C238.634449,48.576 238.505143,48.6837551 238.375837,48.6837551 L229.712327,48.6837551 C229.561469,48.6837551 229.453714,48.554449 229.453714,48.4251429 L229.453714,30.8179592 C229.453714,30.8179592 229.108898,29.8481633 229.087347,29.8266122 L216.156735,2.69387755 C216.070531,2.52146939 216.199837,2.30595918 216.393796,2.30595918 L225.55298,2.30595918 C225.55298,2.30595918 225.746939,2.37061224 225.790041,2.45681633 L225.76849,2.45681633 Z" id="Path"></path>
                <path d="M95.6434286,23.0380408 L95.6434286,24.2017959 C95.6434286,32.6066939 94.4796735,37.1539592 91.4409796,41.3348571 C87.648,46.420898 82.5188571,48.8992653 75.9242449,48.8992653 C70.730449,48.8992653 66.8512653,47.3906939 63.4677551,44.0071837 C58.7696327,39.3306122 56.2050612,32.714449 56.2050612,25.344 C56.2050612,17.973551 58.8558367,10.8186122 63.381551,6.27134694 C66.3555918,3.31885714 70.9675102,1.59477551 76.010449,1.59477551 C80.299102,1.59477551 84.0920816,2.75853061 87.3247347,5.04293878 C90.4280816,7.2842449 91.828898,9.18073469 93.2943673,13.3400816 C93.3159184,13.4262857 93.2943673,13.5340408 93.1866122,13.5555918 L83.8119184,15.6244898 C83.8119184,15.6244898 83.6826122,15.6029388 83.6395102,15.5382857 C81.9154286,11.616 79.2646531,10.7324082 75.7518367,10.7324082 C69.8037551,10.7324082 66.0969796,15.5813878 66.0969796,24.1371429 C66.0969796,34.3954286 69.9761633,39.6538776 76.1613061,39.6538776 C78.7258776,39.6538776 81.290449,38.9857959 82.6912653,37.1108571 C83.6826122,35.7746939 83.9843265,35.2574694 84.6524082,32.6713469 C84.7170612,32.3696327 84.3722449,31.8308571 84.0705306,31.8308571 L77.066449,31.8308571 C77.066449,31.8308571 76.9155918,31.7662041 76.9155918,31.68 L76.9155918,23.1673469 C76.9155918,23.1673469 76.9802449,23.0164898 77.066449,23.0164898 L95.6434286,23.0164898 L95.6434286,23.0380408 Z" id="Path"></path>
            </g>
            <g id="SHRED" transform="translate(150.857143, 383.608163)" fill="#2D2A26">
                <path d="M180.683755,3.10334694 C180.597551,3.21110204 180.554449,9.87036735 180.554449,20.3441633 C180.554449,27.0680816 180.576,36.2272653 180.576,40.7314286 C180.597551,47.8217143 180.640653,48.8992653 180.942367,48.9854694 C181.114776,49.0285714 184.713796,49.1578776 188.916245,49.2225306 C198.075429,49.3733878 203.549388,49.1147755 205.553633,48.4466939 C206.243265,48.2096327 206.997551,47.9941224 207.169959,47.9941224 C207.342367,47.9941224 207.967347,47.6277551 208.506122,47.1967347 C209.109551,46.7441633 209.820735,46.3346939 210.122449,46.2700408 C212.514612,45.6666122 215.574857,41.0977959 216.630857,36.5289796 C218.247184,29.589551 218.053224,21.2062041 216.092082,15.2581224 C215.768816,14.2883265 215.337796,13.1892245 215.143837,12.8013061 C214.949878,12.4133878 214.540408,11.6806531 214.238694,11.1849796 C213.549061,9.87036735 210.531918,6.93942857 209.001796,6.01273469 C204.971755,3.66367347 202.859755,3.34040816 190.08,3.18955102 C184.950857,3.12489796 180.705306,3.10334694 180.683755,3.12489796 L180.683755,3.12489796 L180.683755,3.10334694 Z M183.95951,6.16359184 C184.045714,6.27134694 183.981061,6.42220408 183.851755,6.48685714 C183.744,6.57306122 183.636245,6.48685714 183.636245,6.29289796 C183.636245,5.88342857 183.765551,5.81877551 183.981061,6.14204082 L183.981061,6.14204082 L183.95951,6.16359184 Z M200.252082,12.8228571 C204.174367,13.5986939 206.243265,15.5813878 207.730286,19.9993469 C208.182857,21.4217143 208.24751,21.8958367 208.225959,25.9474286 C208.182857,29.7188571 208.139755,30.580898 207.687184,32.3480816 C206.415673,37.3048163 204.174367,39.3952653 199.540898,39.9124898 C197.515102,40.171102 189.692082,40.0417959 189.23951,39.7616327 C189.002449,39.6107755 189.196408,12.9306122 189.476571,12.650449 C189.886041,12.2194286 197.709061,12.3487347 200.273633,12.8444082 L200.273633,12.8444082 L200.252082,12.8228571 Z" id="Shape"></path>
                <path d="M147.646041,3.21110204 L139.758367,3.29730612 L139.629061,26.0336327 C139.564408,40.3866122 139.585959,48.8777143 139.736816,49.0070204 C139.844571,49.1578776 141.310041,49.2656327 143.120327,49.2656327 C144.930612,49.2656327 151.84849,49.3087347 158.572408,49.3302857 L170.791837,49.4164898 L170.942694,48.8777143 C171.007347,48.576 171.093551,46.5717551 171.115102,44.373551 C171.115102,41.3348571 171.072,40.3650612 170.834939,40.3650612 C170.684082,40.3435102 165.619592,40.3004082 159.585306,40.2573061 C151.719184,40.1926531 148.529633,40.084898 148.292571,39.9124898 C147.947755,39.6107755 147.883102,37.6065306 148.120163,33.4471837 L148.27102,30.9257143 L151.395918,30.9257143 C153.938939,30.9257143 154.542367,30.8610612 154.650122,30.580898 C154.714776,30.4084898 154.779429,28.4042449 154.779429,26.1629388 L154.822531,22.0466939 L151.589878,21.9173878 L148.314122,21.8096327 L148.184816,21.141551 C147.883102,19.8269388 147.969306,12.8228571 148.249469,12.5642449 C148.443429,12.3487347 151.331265,12.2840816 159.843918,12.2840816 C168.356571,12.2840816 171.158204,12.2194286 171.222857,12.0039184 C171.28751,11.8530612 171.416816,9.91346939 171.524571,7.67216327 C171.718531,4.07314286 171.69698,3.59902041 171.416816,3.36195918 C171.028898,3.08179592 170.296163,3.0602449 147.62449,3.23265306 L147.62449,3.23265306 L147.646041,3.21110204 Z" id="Path"></path>
                <path d="M128.659592,25.5164082 C129.090612,24.9560816 129.974204,22.9949388 130.340571,21.8527347 C130.814694,20.2148571 131.051755,16.2494694 130.72849,14.5900408 C130.146612,11.3789388 128.336327,8.448 125.944163,6.65926531 C124.026122,5.25844898 123.33649,4.99983673 119.629714,4.1162449 C117.496163,3.59902041 113.961796,3.44816327 104.371592,3.44816327 C95.6434286,3.44816327 94.3072653,3.46971429 94.2210612,3.77142857 C94.1779592,3.96538776 94.027102,10.3875918 93.940898,18.0813061 C93.8546939,25.7750204 93.7469388,32.1325714 93.7253878,32.2187755 C93.5745306,32.4558367 93.6391837,49.7828571 93.7253878,49.9337143 C93.984,50.1492245 101.80702,50.2138776 102.130286,49.9768163 C102.388898,49.8044082 102.453551,48.1449796 102.561306,40.4512653 C102.625959,33.3394286 102.669061,31.0981224 102.906122,30.8826122 C103.143184,30.667102 103.854367,30.667102 106.332735,30.8395102 C108.854204,31.0119184 111.871347,31.0765714 114.522122,31.0334694 L119.866776,49.9121633 L129.090612,49.9121633 L123.401143,29.7188571 C125.534694,28.8352653 127.086367,27.5206531 128.659592,25.4948571 L128.659592,25.5164082 Z M103.660408,21.2277551 L103.078531,20.9691429 L103.186286,16.7666939 C103.250939,14.4607347 103.358694,12.4133878 103.401796,12.2409796 C103.488,12.0039184 104.544,11.9823673 108.940408,12.0685714 C111.936,12.1332245 115.168653,12.3056327 116.095347,12.4133878 C119.306449,12.8875102 121.052082,14.2021224 121.375347,16.3787755 C121.806367,19.2666122 120.125388,20.7536327 115.836735,21.3139592 C113.897143,21.5725714 104.414694,21.4863673 103.660408,21.2277551 L103.660408,21.2277551 Z" id="Shape"></path>
                <path d="M15.2581224,2.112 C11.3573878,2.78008163 8.83591837,3.94383673 6.42220408,6.2282449 C4.91363265,7.65061224 3.31885714,9.7195102 2.73697959,11.0341224 C0.969795918,14.9995102 1.03444898,19.9131429 2.93093878,23.8354286 C3.83608163,25.7103673 6.09893878,27.9085714 8.21093878,28.9430204 C10.9048163,30.2576327 12.7797551,30.602449 18.1459592,30.7748571 C23.4690612,30.9257143 25.1931429,31.1627755 26.4646531,31.8524082 C28.1240816,32.779102 28.8568163,35.3221224 28.0378776,37.2401633 C26.7232653,40.3435102 22.9518367,41.7012245 16.896,41.2486531 C12.8875102,40.9469388 10.6462041,40.084898 8.81436735,38.2099592 C8.25404082,37.5849796 7.62906122,37.1539592 7.32734694,37.1539592 C6.70236735,37.1539592 4.84897959,38.4470204 3.42661224,39.8262857 C2.41371429,40.8391837 2.3275102,41.0115918 2.3275102,42.0244898 C2.3275102,44.0071837 3.29730612,45.364898 5.88342857,47.1105306 C8.72816327,49.0285714 13.9219592,50.1923265 19.8053878,50.1923265 C24.8914286,50.1923265 28.6413061,49.2009796 31.8955102,46.9812245 C33.8782041,45.6235102 35.4083265,44.1795918 36.0548571,43.0373878 C36.2272653,42.6925714 36.5505306,42.196898 36.7444898,41.8736327 C36.938449,41.5719184 37.3910204,40.5159184 37.7573878,39.5030204 C38.2961633,37.9082449 38.3608163,37.4341224 38.3608163,34.9126531 C38.3608163,30.4084898 37.3694694,27.6715102 34.6971429,25.1069388 C31.8524082,22.3053061 29.3309388,21.5294694 22.4130612,21.3139592 C16.0339592,21.12 14.0081633,20.6674286 12.5642449,19.1804082 C11.5297959,18.1028571 11.2927347,16.7235918 11.8530612,14.9564082 C12.7582041,12.1978776 16.0339592,10.7755102 21.3786122,10.7755102 C25.7750204,10.7755102 28.6197551,11.7022041 31.0550204,14.0512653 C31.9817143,14.9564082 32.1541224,14.9564082 33.792,14.1590204 C34.5678367,13.771102 36.4643265,11.9608163 36.8091429,11.2711837 C37.2401633,10.4306939 37.2401633,8.98677551 36.7660408,8.01697959 C35.6238367,5.60326531 32.6282449,3.62057143 28.5982041,2.54302041 C25.1500408,1.65942857 19.1373061,1.44391837 15.2150204,2.13355102 L15.2150204,2.13355102 L15.2581224,2.112 Z" id="Path"></path>
                <path d="M82.7774694,47.541551 L82.6050612,49.3302857 L78.5965714,49.3733878 C76.053551,49.4164898 74.4587755,49.3518367 74.3294694,49.2009796 C74.1786122,49.0285714 74.1139592,42.5201633 74.1570612,29.2878367 C70.0408163,29.2878367 61.1186939,29.2447347 54.933551,29.1800816 C54.890449,38.5116735 54.8473469,46.9596735 54.7826939,47.6062041 L54.6102857,49.3949388 L50.6017959,49.4380408 C48.0587755,49.4811429 46.464,49.4164898 46.3346939,49.2656327 C46.1838367,49.0932245 46.1191837,41.5934694 46.1622857,26.378449 C46.1838367,13.9435102 46.2053878,3.68522449 46.2053878,3.59902041 C46.2053878,3.51281633 48.1665306,3.40506122 50.5802449,3.40506122 C54.6102857,3.40506122 54.955102,3.44816327 54.9766531,3.79297959 C55.0197551,4.56881633 54.9982041,11.9392653 54.955102,20.4303673 C56.9162449,20.4303673 59.2222041,20.4303673 61.9376327,20.4519184 C67.0452245,20.4734694 71.5493878,20.4734694 74.1355102,20.4734694 C74.1570612,10.8186122 74.1786122,3.59902041 74.1786122,3.51281633 C74.1786122,3.42661224 76.1397551,3.31885714 78.5534694,3.31885714 C82.5835102,3.31885714 82.9283265,3.36195918 82.9498776,3.70677551 C83.0360816,5.58171429 82.8636735,46.1191837 82.7559184,47.498449 L82.7774694,47.541551 Z" id="Path"></path>
            </g>
            <path d="M507.871347,224.647837 C507.849796,215.079184 504.401633,207.083755 501.38449,199.476245 C498.259592,191.502367 494.466612,185.64049 489.660735,179.563102 C485.091918,173.80898 479.790367,168.291918 474.790531,162.774857 C469.747592,157.214694 464.101224,151.719184 460.394449,145.51249 C456.666122,139.198041 456.256653,132.129306 454.187755,124.888163 C453.605878,122.92702 452.442122,120.944327 451.795592,118.89698 C447.11902,104.371592 439.72702,90.1048163 430.697143,80.5361633 C422.507755,71.9157551 410.15902,66.8512653 400.00849,60.4075102 C396.62498,58.2524082 393.176816,55.7309388 389.44849,53.9422041 C377.401469,48.1449796 363.953633,42.5632653 346.303347,42.9296327 C342.165551,43.0158367 338.307918,43.5977143 334.062367,43.1666939 C328.178939,42.5632653 324.127347,39.6538776 318.502531,40.0633469 C311.369143,40.5805714 305.011592,43.7270204 296.455837,44.373551 C293.481796,44.5890612 290.593959,44.0287347 287.318204,43.8994286 C282.770939,43.7054694 278.288327,44.2226939 274.646204,44.8476735 C270.573061,45.5373061 266.844735,47.0027755 262.168163,46.2915918 C258.073469,45.6666122 257.426939,42.4986122 253.763265,41.5072653 C250.293551,40.5590204 245.466122,41.6796735 241.091265,41.9813878 C237.513796,42.24 232.578612,42.5417143 229.561469,41.5072653 C226.156408,40.3219592 225.703837,34.848 221.156571,34.5678367 C218.139429,34.3523265 215.725714,37.003102 213.010286,36.4858776 C211.243102,36.1195102 210.790531,33.3825306 208.937143,33.1239184 C204.540735,32.5420408 202.105469,39.3306122 197.428898,38.1453061 C194.476408,37.4125714 194.605714,30.9903673 189.756735,31.68 C185.317224,32.3049796 183.873306,35.5807347 180.403592,37.9082449 C178.507102,36.5936327 178.399347,32.1110204 175.619265,32.3911837 C172.386612,32.692898 172.925388,39.7831837 170.102204,41.7443265 C168.981551,40.106449 168.507429,36.5936327 165.792,37.1755102 C162.19298,37.9513469 163.981714,48.9639184 159.800816,49.8690612 C159.67151,44.6321633 157.106939,39.5892245 151.417469,41.4857143 C150.102857,44.9123265 152.236408,52.9724082 148.766694,54.890449 C146.546939,53.1017143 145.792653,48.619102 141.331592,49.8475102 C139.801469,53.7697959 144.801306,59.3084082 141.331592,63.0367347 C138.616163,62.2393469 138.486857,58.3386122 135.103347,58.7265306 C129.650939,59.3515102 135.318857,68.8986122 130.793143,70.9459592 C128.724245,70.6226939 127.366531,68.596898 124.801959,69.5235918 C124.112327,71.9588571 125.664,75.8595918 122.883918,76.4630204 C120.81502,76.9155918 120.125388,74.2648163 117.366857,74.7820408 C115.793633,75.4285714 116.397061,78.2948571 115.190204,79.3293061 C111.957551,78.8767347 111.397224,75.2346122 108.013714,75.4932245 C103.05698,75.8595918 106.009469,82.9498776 104.199184,87.2385306 C101.80702,86.0963265 101.548408,79.3724082 98.186449,80.299102 C95.4494694,81.0533878 98.4450612,88.1867755 95.5572245,89.6522449 C92.8633469,88.9841633 92.4323265,84.7601633 89.3289796,85.3420408 C85.9885714,85.9454694 88.9841633,92.0875102 86.9152653,94.6951837 C84.9756735,92.8202449 82.8636735,88.8117551 79.243102,90.1479184 C77.2819592,92.8202449 81.4628571,95.3632653 79.9758367,97.6045714 C77.131102,97.0226939 76.1828571,94.5227755 72.7993469,94.4796735 C69.8684082,97.152 74.3294694,101.117388 72.7993469,103.832816 C70.4502857,103.078531 66.5926531,100.557061 64.416,103.121633 C63.6401633,106.117224 67.3038367,106.763755 67.2822857,109.824 C65.0840816,110.492082 62.0238367,108.013714 60.1057959,109.824 C59.0713469,112.000653 60.9678367,114.026449 60.3213061,115.815184 C58.8342857,117.022041 56.0757551,115.427265 54.8042449,116.78498 C53.5542857,119.069388 56.2697143,120.319347 55.5369796,122.06498 C52.6060408,123.33649 50.2354286,121.00898 48.576,119.672816 C46.6579592,118.121143 44.8476735,116.246204 43.296,114.392816 C40.128,110.621388 37.972898,105.276735 32.5420408,104.350041 C29.0938776,107.798204 30.4084898,112.108408 30.1283265,117.302204 C29.9343673,120.664163 28.6628571,123.702857 28.4473469,126.892408 C28.1887347,131.008653 28.2749388,136.913633 29.3955918,139.60751 C31.658449,144.88751 35.8177959,148.896 36.3781224,155.188898 C36.7875918,160.037878 35.1497143,162.236082 33.9644082,166.22302 C33.0377143,169.261714 33.3394286,172.666776 32.757551,175.102041 C32.1756735,177.62351 30.7317551,178.981224 30.602449,181.567347 C30.3007347,188.528327 34.6324898,192.838531 38.016,198.118531 C36.5074286,200.941714 33.1670204,203.829551 31.5506939,207.708735 C30.7317551,209.648327 30.645551,212.363755 30.1067755,214.906776 C29.7404082,216.630857 28.9861224,218.139429 29.1585306,219.691102 C29.6326531,223.484082 34.3738776,224.518531 36.1195102,226.889143 C37.0677551,228.182204 37.003102,229.647673 38.2746122,230.725224 C40.2357551,232.363102 42.5201633,232.406204 45.4726531,232.643265 C47.476898,234.065633 48.6837551,236.285388 51.9379592,236.479347 C53.4680816,238.246531 55.2999184,241.716245 58.1662041,240.789551 C60.4290612,240.078367 59.5670204,236.048327 60.3213061,233.354449 C62.1315918,233.462204 62.7565714,234.755265 65.1056327,234.324245 C66.9805714,233.074286 66.4417959,229.259755 67.0452245,227.363265 C73.5105306,231.371755 73.941551,224.346122 73.9846531,218.979918 C78.8336327,220.984163 80.4715102,216.630857 79.7172245,211.566367 C81.7861224,211.82498 81.8723265,213.268898 83.8119184,212.988735 C87.1092245,212.514612 86.0316735,206.782041 89.0703673,206.76049 C87.1307755,211.070694 84.48,214.842122 82.1093878,218.742857 C80.6008163,221.242776 79.7387755,223.958204 78.2948571,226.41502 C75.5794286,231.026939 70.2778776,235.380245 71.3338776,241.522286 C74.2217143,242.384327 76.9586939,240.530939 79.0060408,239.130122 C81.0102857,237.707755 83.5533061,236.220735 84.9756735,234.561306 C87.648,231.544163 88.5746939,227.169306 91.2254694,224.259918 C91.1177143,223.397878 91.2470204,222.578939 91.4409796,221.867755 C92.2599184,219.044571 95.061551,214.346449 96.6994286,212.514612 C101.138939,207.665633 109.630041,210.35951 115.879837,206.76049 C118.616816,205.208816 121.289143,202.083918 123.810612,199.562449 C129.241469,194.131592 134.068898,189.950694 138.659265,183.744 C142.085878,179.110531 144.628898,174.433959 151.611429,175.576163 C153.464816,181.782857 154.283755,190.834286 154.262204,199.066776 C154.240653,205.855347 152.020898,211.523265 149.930449,217.536 C147.947755,223.290122 145.361633,228.182204 142.279837,232.858776 C139.025633,237.837061 137.129143,242.729143 135.318857,248.698776 C133.163755,255.896816 131.073306,268.202449 124.284735,270.034286 C120.448653,271.090286 116.267755,269.150694 112.302367,268.827429 C110.944653,268.719673 109.522286,269.107592 108.229224,269.06449 C105.750857,268.978286 102.86302,267.620571 101.268245,270.271347 C100.794122,272.254041 102.475102,273.180735 101.742367,274.581551 C99.6519184,275.357388 97.7338776,274.689306 95.7511837,275.551347 C94.0917551,276.262531 93.2943673,278.137469 91.915102,278.913306 C90.4927347,279.710694 88.4884898,279.796898 86.8721633,280.572735 C84.2860408,281.887347 82.7128163,284.214857 83.7688163,287.770776 C87.9066122,287.684571 93.8546939,285.292408 95.5141224,289.925878 C95.4279184,290.852571 94.4581224,293.050776 94.5443265,294.710204 C94.6089796,295.744653 95.8589388,297.533388 95.9882449,299.041959 C96.3330612,302.813388 93.6176327,307.92098 96.9364898,308.632163 C100.557061,309.386449 100.794122,304.041796 103.401796,303.115102 C108.660245,303.955592 111.246367,298.309224 114.198857,298.072163 C115.599673,297.964408 116.849633,299.020408 118.034939,299.257469 C124.995918,300.679837 125.836408,295.550694 130.254367,293.977469 C133.056,292.986122 135.922286,293.611102 138.163592,292.770612 C140.060082,292.059429 141.741061,290.529306 142.732408,289.171592 C145.189224,285.852735 144.45649,280.831347 147.990857,278.15902 C149.908898,276.693551 153.098449,276.801306 155.167347,275.271184 C158.227592,273.051429 158.809469,268.00849 160.447347,264 C161.675755,260.961306 163.766204,258.50449 164.736,256.327837 C165.598041,254.452898 165.705796,252.103837 166.675592,250.099592 C169.089306,244.948898 173.916735,241.112816 175.533061,236.673306 C176.050286,235.27249 175.942531,233.397551 176.481306,232.363102 C177.903673,229.690776 182.386286,228.139102 183.916408,224.928 C184.58449,223.548735 184.670694,221.113469 185.618939,220.122122 C186.610286,219.066122 188.679184,219.195429 189.692082,218.204082 C190.230857,214.174041 192.235102,212.68702 194.476408,210.531918 C195.834122,209.238857 196.739265,207.665633 198.290939,206.932898 C201.027918,209.669878 201.286531,213.872327 202.148571,217.729959 C203.894204,225.660735 206.329469,233.397551 207.881143,241.716245 C208.65698,245.703184 209.669878,250.315102 211.221551,253.22449 C213.893878,258.116571 221.436735,261.26302 224.669388,265.443918 C226.695184,268.094694 227.406367,273.525551 224.195265,275.271184 C222.471184,276.197878 220.854857,275.314286 217.708408,275.745306 C216.846367,275.853061 214.79902,277.210776 212.924082,277.663347 C209.562122,278.460735 206.868245,278.029714 205.48898,279.818449 C201.437388,285.033796 209.669878,285.486367 212.924082,285.809633 C211.372408,287.943184 211.760327,289.710367 210.531918,292.274939 C208.915592,295.701551 204.368327,296.714449 204.303673,300.442776 C204.282122,302.145306 205.682939,304.084898 206.717388,304.278857 C210.251755,304.903837 213.118041,298.610939 216.307592,299.710041 C217.902367,300.270367 217.298939,301.58498 218.204082,303.28751 C218.979918,304.731429 220.790204,305.248653 220.854857,306.649469 C219.324735,309.386449 218.656653,317.144816 222.277224,316.972408 C223.203918,316.907755 224.992653,314.515592 225.660735,313.588898 C226.82449,311.972571 227.212408,310.420898 228.052898,309.041633 C234.86302,307.662367 234.194939,296.822204 238.806857,293.697306 C241.306776,291.994776 244.754939,292.188735 246.974694,290.572408 C251.371102,287.44751 254.258939,281.003755 253.202939,274.279837 C252.513306,269.581714 246.241959,265.68098 245.789388,260.357878 C244.453224,245.789388 235.681959,234.669061 240.035265,219.130776 C240.574041,217.255837 241.780898,215.768816 242.211918,213.398204 C242.836898,209.648327 241.845551,205.855347 241.974857,202.12702 C242.190367,194.411755 247.060898,188.830041 249.151347,181.502694 C252.513306,176.589061 260.961306,179.778612 268.094694,178.873469 C271.004082,178.507102 273.93502,176.761469 276.499592,176.481306 C281.305469,175.942531 282.490776,178.636408 285.357061,178.873469 C288.654367,179.175184 291.132735,176.416653 293.740408,176.244245 C296.197224,177.925224 295.68,182.149224 298.309224,183.205224 C302.770286,184.993959 306.089143,180.274286 310.528653,179.369143 C312.231184,179.024327 313.869061,179.412245 315.31298,179.132082 C317.360327,178.722612 318.782694,177.580408 320.830041,177.688163 C321.261061,195.855673 326.627265,206.54498 334.96751,217.729959 C337.898449,221.695347 341.497469,225.876245 345.268898,229.970939 C348.846367,233.828571 353.824653,238.095673 355.354776,242.686041 C357.725388,249.905633 352.229878,255.875265 349.126531,259.689796 C347.574857,261.607837 345.829224,263.892245 343.846531,264.732735 C341.432816,265.745633 331.303837,265.788735 327.834122,265.206857 C325.592816,264.84049 323.373061,262.879347 320.59298,263.525878 C319.149061,263.870694 317.037061,266.586122 317.252571,268.094694 C317.575837,270.292898 320.140408,269.689469 321.088653,271.672163 C318.28702,271.456653 317.532735,274.689306 314.860408,275.034122 C313.330286,275.228082 311.606204,274.064327 309.817469,274.322939 C306.132245,274.861714 304.817633,278.439184 304.084898,282.490776 C307.145143,285.55102 310.528653,281.930449 313.20098,282.943347 C314.666449,283.525224 314.106122,284.926041 315.593143,286.305306 C316.843102,287.44751 318.674939,287.469061 319.192163,288.460408 C321.519673,292.921469 317.252571,294.430041 315.593143,296.843755 C314.709551,298.136816 313.459592,300.356571 313.675102,301.649633 C313.84751,302.770286 316.218122,304.580571 317.274122,304.515918 C320.937796,304.321959 321.886041,297.339429 325.441959,296.843755 C326.799673,296.649796 328.222041,297.382531 329.515102,297.317878 C331.756408,297.231673 333.825306,296.197224 335.506286,295.399837 C338.286367,294.085224 339.81649,291.779265 343.393959,291.800816 C344.449959,291.800816 346.023184,292.576653 347.251592,292.512 C349.837714,292.382694 352.337633,290.249143 353.479837,288.438857 C354.277224,287.167347 354.38498,285.464816 355.160816,284.365714 C357.509878,280.960653 363.091592,280.314122 366.432,277.641796 C368.285388,276.154776 370.289633,273.223837 371.949061,270.206694 C373.586939,267.189551 375.418776,265.077551 377.681633,262.793143 C382.379755,258.116571 387.810612,255.013224 389.211429,248.16 C391.582041,236.522449 382.315102,235.832816 379.125551,229.949388 C376.302367,224.690939 376.754939,217.686857 378.651429,213.398204 C380.569469,209.044898 385.65551,208.096653 388.478694,204.282122 C390.202776,201.933061 389.534694,198.829714 392.810449,197.342694 C394.814694,200.920163 397.616327,202.945959 400.698122,205.726041 C402.486857,207.385469 403.779918,209.389714 405.482449,210.273306 C406.861714,211.006041 408.564245,210.941388 410.051265,211.480163 C412.227918,212.256 414.878694,213.764571 417.227755,215.057633 C420.632816,216.954122 423.520653,220.251429 426.83951,222.018612 C431.968653,224.755592 437.421061,225.55298 441.688163,228.268408 C444.619102,230.121796 447.31298,233.182041 448.649143,237.125878 C449.705143,240.315429 450.674939,248.440163 450.308571,252.470204 C449.511184,261.26302 439.058939,259.15102 431.128163,261.823347 C430.072163,262.189714 429.274776,263.030204 428.283429,263.267265 C426.580898,263.676735 424.835265,263.267265 423.24049,263.978449 C422.119837,264.495673 416.451918,269.667918 420.115592,271.650612 C422.055184,272.685061 424.770612,269.883429 427.05502,271.650612 C426.796408,278.180571 419.576816,278.99951 420.848327,286.283755 C425.934367,289.516408 428.434286,281.413224 432.11951,281.714939 C433.17551,281.822694 435.481469,284.042449 435.718531,285.55102 C436.214204,289.042286 431.580735,296.434286 436.666776,297.296327 C441.731265,298.158367 442.89502,290.055184 445.308735,287.232 C445.890612,286.563918 447.851755,285.788082 448.670694,284.839837 C451.321469,281.801143 451.515429,277.94351 454.187755,276.909061 C456.321306,276.111673 458.713469,276.521143 460.653061,275.982367 C462.463347,275.443592 464.661551,274.279837 466.170122,273.094531 C468.325224,271.413551 472.225959,266.32751 473.389714,263.504327 C476.579265,255.401143 469.790694,249.776327 469.057959,242.642939 C468.734694,239.474939 469.48898,236.069878 469.29502,232.815673 C469.208816,231.070041 468.691592,229.410612 468.562286,227.772735 C468.282122,224.173714 468.820898,221.027265 468.088163,217.945469 C465.803755,208.053551 455.610122,205.984653 448.433633,201.889959 C443.778612,197.622857 440.545959,192.278204 438.606367,185.123265 C436.278857,176.524408 437.722776,169.563429 438.86498,161.374041 C439.403755,157.473306 439.209796,153.206204 441.494204,150.361469 C443.606204,154.176 444.209633,155.964735 445.588898,158.744816 C446.946612,161.524898 447.657796,164.52049 449.42498,167.623837 C450.739592,169.929796 453.131755,172.063347 454.92049,174.347755 C460.437551,181.308735 466.148571,188.18351 471.967347,194.239347 C480.350694,203.010612 485.889306,212.68702 488.734041,226.846041 C490.242612,234.345796 490.910694,241.910204 489.703837,248.892735 C488.583184,255.401143 486.38498,261.866449 485.393633,269.28 C482.893714,287.706122 474.704327,303.632327 462.140082,311.455347 C458.023837,313.998367 453.541224,316.024163 449.187918,318.653388 C444.834612,321.282612 439.985633,322.834286 435.050449,324.881633 C425.611102,328.782367 415.029551,332.553796 403.650612,333.997714 C382.789224,336.626939 360.93649,335.764898 341.583673,333.027918 C336.562286,332.316735 331.519347,332.058122 326.454857,331.584 C311.757061,330.204735 277.706449,329.084082 276.952163,329.191837 C247.836735,327.252245 222.514286,331.433143 194.476408,336.23902 C181.00702,338.54498 167.085061,338.329469 153.938939,339.881143 C133.831837,342.294857 114.457469,344.299102 95.1908571,340.312163 C88.1652245,338.868245 79.5448163,336.885551 72.6484898,334.062367 C64.459102,330.721959 56.8300408,325.980735 48.8130612,320.269714 C43.8778776,316.756898 38.4470204,315.916408 34.9126531,320.894694 C31.3782857,325.851429 33.3609796,331.842612 38.2961633,335.355429 C48.3173878,342.445714 55.4723265,345.312 65.450449,349.169633 C67.9503673,350.139429 73.2734694,352.704 75.7949388,353.501388 C79.9758367,354.837551 84.1782857,356.669388 88.3591837,357.596082 C92.5616327,358.544327 96.7856327,359.298612 100.988082,359.902041 C109.39298,361.108898 117.819429,361.733878 126.310531,362.057143 C132.797388,362.315755 140.210939,362.143347 146.676245,361.669224 C164.003265,360.376163 180.532898,358.242612 197.601306,355.333224 C218.570449,351.755755 264.21551,343.868082 311.778612,351.712653 C319.019755,352.91951 326.217796,353.738449 333.868408,354.816 C346.885224,356.647837 360.203755,357.962449 374.384327,357.919347 C379.901388,357.919347 385.289143,357.315918 390.676898,356.971102 C395.827592,356.647837 401.301551,356.30302 406.495347,355.527184 C414.059755,354.428082 421.55951,351.238531 429.037714,349.040327 C459.553959,340.161306 485.156571,327.726367 496.880327,300.852245 C499.832816,294.085224 502.785306,285.938939 504.229224,277.361633 C506.233469,265.27151 506.578286,250.207347 508.043755,237.556898 C508.56098,233.203592 507.914449,229.022694 507.914449,224.604735 L507.871347,224.647837 Z M44.9338776,152.49502 C46.1407347,155.059592 45.6666122,160.533551 46.1407347,163.033469 C42.3908571,162.537796 41.3348571,154.089796 44.9338776,152.49502 Z M36.0764082,124.435592 C37.7573878,126.590694 38.5978776,132.84049 37.2832653,135.706776 C33.5764898,135.318857 35.0419592,126.655347 36.0764082,124.435592 Z M35.3436735,176.222694 C42.5848163,177.278694 45.5157551,189.390367 40.128,194.691918 C34.848,192.515265 30.4300408,181.933714 35.3436735,176.222694 Z M50.688,223.936653 C49.3949388,222.449633 49.1794286,219.755755 46.6148571,219.367837 C44.1149388,219.02302 41.8520816,220.294531 41.5719184,223.203918 C40.0633469,223.354776 39.072,222.988408 38.2099592,222.492735 C37.6280816,220.91951 38.5116735,219.21698 38.2099592,217.212735 C37.972898,216.523102 37.2617143,216.393796 36.7660408,216.005878 C34.1799184,216.372245 34.0937143,219.260082 31.9817143,220.07902 C30.4731429,218.592 32.1972245,217.428245 32.714449,216.242939 C32.9299592,215.682612 32.779102,214.712816 33.1885714,214.087837 C36.2488163,209.691429 39.7616327,215.63951 42.8003265,216.005878 C44.330449,216.199837 46.0329796,214.820571 47.8217143,214.820571 C52.4336327,214.820571 56.0542041,221.910857 50.709551,223.915102 L50.688,223.936653 Z M57.3688163,238.095673 C53.9637551,238.418939 54.2223673,234.173388 57.3688163,234.496653 C58.1662041,235.315592 57.8429388,237.190531 57.3688163,238.095673 Z M56.8946939,146.99951 C55.3645714,145.253878 53.9422041,142.150531 54.5025306,139.090286 C55.6662857,137.215347 57.3041633,139.995429 58.123102,140.771265 C58.036898,143.163429 58.5325714,146.137469 56.8946939,146.99951 Z M64.0711837,231.867429 C62.8212245,231.932082 62.2393469,231.328653 61.7005714,230.682122 C62.304,229.626122 62.6272653,228.268408 64.3513469,228.289959 C64.8039184,229.173551 64.6961633,231.264 64.0711837,231.867429 Z M111.332571,134.305959 C112.410122,129.823347 113.229061,124.672653 114.457469,120.642612 C114.435918,120.211592 114.629878,120.017633 114.931592,119.909878 L115.168653,119.909878 C117.302204,121.590857 116.203102,124.17698 116.37551,126.612245 C116.871184,132.926694 119.909878,138.637714 117.819429,144.133224 C116.634122,147.236571 114.198857,149.370122 112.539429,152.042449 C108.811102,151.977796 109.586939,147.883102 108.961959,145.081469 C108.617143,143.637551 106.957714,142.064327 107.043918,140.534204 C107.130122,138.486857 110.750694,136.741224 111.354122,134.305959 L111.332571,134.305959 Z M77.9931429,138.142041 C77.9284898,143.659102 73.2950204,145.878857 68.4029388,145.792653 C69.5020408,141.611755 73.0364082,134.586122 77.9931429,138.142041 Z M78.4672653,154.930286 C80.5792653,153.529469 82.346449,151.288163 84.7170612,152.538122 C85.0403265,155.167347 82.4757551,157.494857 80.6223673,159.003429 C76.9155918,161.99902 71.851102,163.960163 66.2262857,165.231673 C67.3038367,160.576653 73.7691429,158.076735 78.4457143,154.930286 L78.4672653,154.930286 Z M70.795102,226.134857 C69.2649796,225.76849 67.9934694,225.121959 67.0021224,224.216816 C67.540898,222.126367 69.0279184,220.984163 70.795102,220.143673 C71.3985306,221.587592 72.1312653,224.906449 70.795102,226.134857 Z M77.044898,216.781714 C75.9673469,217.255837 74.6311837,216.673959 74.1786122,215.833469 C74.3079184,213.980082 75.5794286,213.247347 76.3337143,211.997388 C78.0146939,212.148245 77.7560816,215.725714 77.066449,216.781714 L77.044898,216.781714 Z M83.2515918,210.316408 C81.9585306,209.92849 81.1826939,209.066449 80.6223673,207.924245 C81.0964898,206.609633 83.3593469,205.92 84.9110204,206.480327 C84.9325714,208.355265 84.2860408,209.51902 83.2300408,210.316408 L83.2515918,210.316408 Z M83.2515918,185.381878 C80.6439184,191.502367 72.842449,191.847184 67.6917551,194.497959 C64.1789388,188.291265 68.5753469,181.071673 72.7346939,178.67951 C77.1957551,178.399347 80.7516735,175.985633 85.4282449,176.739918 C84.436898,179.994122 84.3291429,182.860408 83.2515918,185.381878 Z M85.1696327,124.478694 C82.4757551,123.228735 79.4801633,121.569306 79.9111837,117.776327 C80.6870204,110.966204 90.2556735,120.039184 85.1696327,124.478694 Z M86.613551,198.075429 C87.3462857,195.36 89.8246531,193.808327 91.872,192.321306 C94.1133061,190.70498 96.9149388,189.735184 99.307102,188.248163 C104.608653,184.929306 108.574041,179.713959 112.754939,175.533061 L113.229061,175.533061 C109.759347,188.442122 100.94498,196.006531 86.613551,198.075429 Z M115.384163,192.558367 C116.655673,189.217959 118.983184,187.278367 121.138286,183.937959 C123.142531,180.813061 122.905469,176.395102 125.44849,173.852082 C125.491592,173.593469 125.922612,173.701224 125.922612,173.377959 C126.09502,173.507265 126.310531,173.636571 126.655347,173.61502 C127.754449,182.946612 123.379592,190.769633 115.384163,192.558367 Z M133.357714,108.897306 C130.642286,106.806857 128.250122,103.789714 129.069061,98.8329796 C138.314449,96.6132245 141.547102,105.664653 142.236735,112.733388 C139.370449,113.250612 135.749878,110.750694 133.357714,108.897306 L133.357714,108.897306 Z M91.4194286,283.913143 C89.9324082,284.128653 87.626449,285.421714 86.3980408,284.387265 C86.9152653,282.490776 89.5660408,281.52098 91.6564898,281.995102 C91.7642449,282.814041 91.5702857,283.331265 91.3978776,283.913143 L91.4194286,283.913143 Z M97.9062857,305.485714 C96.7856327,302.985796 98.8114286,299.149714 100.53551,302.145306 C99.9105306,303.50302 99.285551,304.882286 97.9062857,305.485714 Z M104.608653,270.745469 L105.319837,270.745469 C106.569796,272.469551 103.380245,272.469551 104.608653,270.745469 Z M141.28849,255.401143 C142.387592,254.086531 146.611592,252.577959 147.990916,254.431347 C148.012408,257.319184 142.085878,258.181224 141.28849,255.401143 Z M207.687184,301.197061 C205.251918,297.404082 212.514612,293.740408 212.018939,298.330776 C211.82498,300.033306 209.411265,300.485878 207.687184,301.197061 Z M207.687184,281.542531 C208.592327,280.27102 211.113796,279.646041 212.967184,280.098612 C213.247347,280.723592 213.268898,281.564082 213.225796,282.512327 C211.954286,282.921796 208.118204,283.352816 207.687184,281.542531 L207.687184,281.542531 Z M222.816,313.438041 C220.704,311.713959 222.837551,305.938286 225.445224,308.869224 C225.380571,311.175184 224.08751,312.317388 222.816,313.438041 Z M224.259918,145.146177 C221.113469,145.167673 219.367837,138.76702 220.186776,135.081796 C221.178122,134.629224 222.083265,134.241306 223.290122,134.586122 C224.992653,135.081796 228.914939,145.10302 224.259918,145.124571 L224.259918,145.146177 Z M180.123429,65.5582041 C184.929306,63.1229388 194.433306,69.3296327 201.221878,71.8726531 C209.023347,74.7604898 209.411265,80.0404898 214.217143,86.2256327 C217.665306,90.6651429 219.02302,95.2770612 221.54449,101.332898 C222.406531,103.401796 225.165061,108.121469 222.816,108.918857 C221.285878,109.436082 219.238531,107.367184 218.247184,106.03102 C212.730122,98.7467755 210.057796,90.6220408 204.583837,83.2515918 C202.601143,80.5577143 199.756408,76.9371429 197.644408,75.5794286 C193.894531,73.1441633 188.118857,72.2605714 183.657796,70.795102 C181.588898,70.1054694 176.998531,67.1098776 180.123429,65.515102 L180.123429,65.5582041 Z M180.856163,112.302367 C184.821551,115.060898 189.282612,117.022041 193.355755,119.478857 C197.385796,121.957224 202.730449,128.056163 201.48049,133.874939 C196.782367,133.099102 195.079837,128.961306 192.127347,125.707102 C184.821551,117.754776 173.356408,116.353959 164.326531,110.125714 C164.024816,107.065469 164.52049,104.673306 168.141061,105.082776 C172.192653,105.556898 177.235592,109.737796 180.834612,112.280816 L180.856163,112.302367 Z M154.973388,238.160327 C153.615673,238.87151 151.913143,238.074122 151.374367,237.190531 C150.555429,232.53551 155.986286,234.539755 154.973388,238.160327 Z M143.228082,78.7258776 C148.098612,67.6486531 164.563592,78.0362449 169.132408,84.48 C170.188408,86.0101224 170.64098,87.9066122 170.554776,89.2858776 C160.94302,86.2687347 148.658939,85.9454694 143.228082,78.7474286 L143.228082,78.7258776 Z M165.748898,220.660898 C162.774857,220.380735 161.632653,215.919673 162.882612,212.988735 C164.757551,214.454204 166.179918,217.622204 165.748898,220.660898 Z M162.882612,183.981061 C163.270531,183.894857 163.292082,184.196571 163.572245,184.218122 C166.266122,189.584327 171.826286,192.127347 173.421061,198.592653 C168.33502,195.446204 162.085224,192.192 162.861061,183.981061 L162.882612,183.981061 Z M184.455184,163.830857 C181.502694,162.947265 177.515755,163.24898 174.627918,162.386939 C172.020245,161.632653 169.735837,159.736163 168.141061,158.076735 L168.636735,158.076735 C176.459755,159.003429 186.28702,159.262041 192.62302,161.675755 C194.885878,162.537796 198.09698,164.843755 197.170286,168.141061 C192.342857,169.886694 188.937796,165.188571 184.476735,163.830857 L184.455184,163.830857 Z M212.47151,212.493061 C215.230041,212.88098 220.122122,212.428408 223.268571,212.730122 C223.03151,216.867918 212.665469,216.199837 212.47151,212.493061 Z M218.010122,249.64702 C218.850612,242.772245 223.807347,253.095184 218.010122,249.64702 L218.010122,249.64702 Z M215.617959,230.229551 C215.574857,229.949388 215.661061,229.798531 215.833469,229.755429 C218.958367,229.99249 224.561633,229.820082 224.238367,234.324245 C220.423837,235.70351 216.954122,232.837224 215.596408,230.229551 L215.617959,230.229551 Z M222.557388,188.291265 C216.242939,193.248 198.937469,194.066939 196.20049,185.877551 C199.540898,186.998204 202.859755,186.631837 206.480327,186.373224 C211.264653,186.006857 216.156735,186.502531 219.669551,185.187918 C222.406531,184.153469 224.367673,181.890612 226.846041,180.856163 L227.341714,180.856163 C227.837388,183.226776 224.561633,186.69649 222.535837,188.291265 L222.557388,188.291265 Z M234.302694,259.732898 C233.376,259.388082 233.440653,257.556245 233.828571,256.629551 C235.401796,256.327837 235.91902,259.711347 234.302694,259.732898 Z M235.509551,67.7133061 C232.126041,68.0581224 231.953633,65.2564898 230.703673,63.1444898 C229.453714,60.9893878 227.384816,60.235102 226.156408,58.5972245 C224.777143,55.3645714 230.445061,56.2266122 233.095837,57.7782857 C236.220735,59.6101224 236.845714,64.6961633 235.509551,67.7133061 Z M251.823673,146.35298 C249.797878,144.865959 249.797878,141.999673 249.172898,139.629061 C248.569469,137.344653 247.858286,135.017143 246.996245,132.689633 C245.250612,128.034612 243.569633,123.659755 242.319673,119.866776 C241.371429,117.00049 239.690449,112.841143 242.44898,111.828245 C245.530776,111.009306 251.651265,124.133878 253.483102,134.844735 C254.086531,138.422204 254.71151,146.611592 251.802122,146.35298 L251.823673,146.35298 Z M270.292898,109.19902 C266.392163,106.203429 266.823184,101.440653 265.48702,96.2468571 C264.107755,90.8806531 261.500082,86.2256327 258.547592,82.1093878 C256.672653,79.4801633 254.086531,76.3983673 255.207184,71.786449 C255.358041,71.5709388 255.616653,71.4200816 255.896816,71.3123265 C266.629224,75.3423673 273.202286,86.7644082 272.922122,101.268245 C272.87902,104.500898 272.146286,107.259429 270.292898,109.19902 Z M288.029388,73.7044898 C282.102857,74.6311837 281.887347,67.4977959 282.986449,63.6186122 C283.072653,62.4548571 284.969143,63.0582857 286.089796,62.9074286 C289.171592,64.5668571 291.132735,70.6011429 288.029388,73.7044898 Z M295.378286,115.125551 C295.227429,119.586612 295.486041,125.319184 292.576653,126.698449 C291.197388,125.685551 290.874122,122.92702 290.895673,120.470204 C290.917224,115.060898 291.843918,106.117224 294.710204,106.806857 C297.16702,107.194776 295.442939,111.914449 295.356735,115.125551 L295.378286,115.125551 Z M307.188245,281.089959 C306.584816,278.072816 309.645061,275.616 313.20098,276.779755 C313.545796,277.620245 313.481143,278.913306 313.675102,279.904653 C311.864816,280.594286 309.235592,281.391673 307.188245,281.089959 Z M317.01551,301.240163 C316.476735,297.813551 319.644735,293.761959 322.554122,294.516245 C321.498122,297.425633 319.558531,300.593633 317.01551,301.240163 Z M324.924735,269.366204 C322.985143,269.236898 321.45502,268.698122 320.377469,267.663673 C320.140408,264.560327 325.398857,265.767184 326.110041,267.189551 C326.002286,268.180898 325.528163,268.827429 324.903184,269.366204 L324.924735,269.366204 Z M369.061224,67.2607347 C373.19902,69.1141224 370.181878,75.8380408 366.884571,76.6138776 C365.613061,73.3596735 367.401796,69.2218776 369.061224,67.2607347 L369.061224,67.2607347 Z M346.518857,55.989551 C352.07902,57.9506939 354.428082,71.808 353.005714,79.9758367 C352.423837,83.1653878 350.872163,87.0014694 349.406694,89.803102 C347.876571,92.7555918 345.333551,98.5528163 343.372408,97.0011429 C342.76898,88.4238367 348.760163,78.122449 345.958531,68.8124082 C344.988735,65.5582041 341.863837,63.0367347 341.691429,60.0626939 C341.475918,56.5283265 343.070694,54.7826939 346.518857,56.011102 L346.518857,55.989551 Z M314.623347,100.10449 C310.657959,95.6649796 316.713796,86.0101224 320.851592,90.7513469 C324.192,94.5443265 321.024,103.229388 314.623347,100.10449 Z M328.760816,129.586286 C328.480653,125.642449 332.381388,122.388245 334.019265,118.789224 C335.657143,115.254857 335.958857,113.250612 339.299265,111.591184 L339.773388,111.591184 C340.87249,118.616816 336.756245,124.478694 332.338286,128.142367 C331.411592,128.918204 330.053878,129.521633 328.739265,129.586286 L328.760816,129.586286 Z M335.700245,189.282612 C342.187102,189.368816 346.971429,191.136 351.281633,193.377306 C349.061878,199.842612 340.678531,193.377306 335.463184,192.881633 C335.161469,191.97649 334.385633,189.713633 335.700245,189.304163 L335.700245,189.282612 Z M342.898286,213.980082 C342.57502,211.652571 346.518857,209.756082 348.630857,209.432816 C350.053224,209.217306 351.928163,209.238857 353.436735,209.906939 C354.147918,210.230204 356.841796,212.320653 356.561633,213.505959 C356.109061,215.380898 343.350857,217.363592 342.898286,213.980082 L342.898286,213.980082 Z M359.923592,254.496 C359.449469,251.284898 363.824327,250.940082 366.669061,252.577959 C367.617306,255.98302 360.548571,258.353633 359.923592,254.496 Z M365.440653,236.285388 C364.212245,237.061224 360.613224,237.578449 360.397714,235.552653 C360.268408,234.130286 361.863184,234.173388 362.811429,233.397551 C364.255347,232.212245 365.526857,229.841633 367.358694,229.324408 L368.048327,229.324408 C368.220735,231.371755 367.358694,235.05698 365.419102,236.285388 L365.440653,236.285388 Z M355.634939,173.959837 C353.803102,173.248653 352.122122,171.783184 350.354939,170.834939 C346.540408,168.873796 342.596571,168.572082 337.898449,166.546286 C336.174367,165.792 329.881469,162.861061 334.773551,161.503347 C338.394122,160.490449 346.58351,161.460245 349.622204,162.236082 C358.393469,164.434286 363.738122,171.115102 373.845551,172.321959 C371.431837,176.352 360.333061,175.813224 355.634939,173.981388 L355.634939,173.959837 Z M383.909878,126.482939 C382.918531,128.163918 381.539265,130.469878 380.095347,131.762939 C375.763592,135.620571 367.401796,137.430857 359.945143,137.754122 C356.08751,137.926531 349.212735,139.111837 348.932571,136.073143 C349.643755,134.004245 353.54449,134.241306 355.872,133.68098 C364.729469,131.547429 375.073959,130.125061 379.125551,121.461551 C381.797878,117.496163 385.483102,115.685878 386.560653,120.017633 C386.409796,122.366694 385.116735,124.521796 383.909878,126.482939 L383.909878,126.482939 Z M393.995755,83.1007347 C391.15102,88.4669388 389.082122,95.018449 382.272,93.1650612 C379.599673,91.6780408 387.422694,84.3722449 389.340735,78.3810612 C390.375184,75.1699592 390.612245,69.0710204 394.254367,68.7908571 C396.581878,68.596898 397.551673,70.6226939 397.853388,72.3036735 C398.32751,75.1699592 395.698286,79.8896327 394.017306,83.0791837 L393.995755,83.1007347 Z M426.365388,268.892082 C424.705959,268.892082 423.089633,270.012735 421.581061,269.366204 C422.313796,267.060245 423.736163,265.422367 426.861061,265.530122 C427.378286,266.629224 426.83951,268.030041 426.365388,268.892082 Z M423.499102,284.68898 C421.796571,281.499429 427.033469,276.434939 428.542041,281.11151 C427.615347,283.051102 426.063673,284.408816 423.499102,284.68898 Z M437.636571,295.011918 C434.85649,294.494694 436.925388,288.438857 437.852082,286.39151 C439.791673,286.262204 440.998531,286.930286 442.636408,287.102694 C442.550204,288.977633 440.007184,295.486041 437.61502,295.011918 L437.636571,295.011918 Z M459.683265,226.458122 C463.066776,230.121796 454.015347,233.80702 453.929143,230.057143 C453.886041,227.988245 457.528163,226.975347 459.683265,226.458122 Z M418.434612,92.4538776 C418.283755,97.3459592 415.913143,102.044082 412.421878,104.436245 C410.827102,102.970776 407.853061,102.453551 407.422041,100.363102 C406.538449,96.3115102 415.180408,86.8937143 418.434612,92.4538776 L418.434612,92.4538776 Z M405.245388,200.338286 C405.697959,197.493551 408.478041,196.329796 410.525388,195.058286 C412.852898,193.635918 415.158857,191.97649 417.227755,190.51102 L418.434612,190.51102 C419.641469,197.924571 411.128816,204.583837 405.245388,200.338286 Z M431.839347,218.074776 C428.197224,216.738612 432.356571,208.312163 435.201306,207.773388 C437.830531,211.113796 435.783184,219.497143 431.839347,218.074776 Z M430.179918,128.422531 C425.891265,131.15951 421.77502,135.448163 416.020898,130.814694 C417.033796,129.04751 419.232,128.918204 420.826776,128.422531 C426.40849,126.612245 431.106612,124.112327 434.964245,120.276245 L436.386612,120.276245 C437.39951,124.931265 433.304816,126.418286 430.179918,128.422531 Z M459.403102,166.072163 C457.441959,165.016163 455.97649,157.150041 459.898776,159.111184 C461.385796,159.865469 462.528,165.425633 459.403102,166.072163 Z M480.760163,182.860408 C477.570612,183.075918 473.044898,180.877714 473.583673,178.313143 C474.251755,174.778776 485.113469,179.455347 480.760163,182.860408 Z M57.6705306,337.898449 C57.8213878,335.010612 64.2004898,335.700245 64.1573878,338.070857 C64.2651429,340.376816 57.4550204,339.665633 57.6705306,337.898449 L57.6705306,337.898449 Z M87.9066122,347.596408 C88.8333061,345.312 95.2124082,351.066122 95.2124082,351.066122 C93.7684898,353.76 86.7644082,349.837714 87.9066122,347.596408 Z M126.655347,355.397878 C124.047673,353.587592 128.465633,348.005878 130.642286,349.428245 C132.862041,350.656653 128.185469,356.647837 126.655347,355.397878 Z M171.244408,349.880816 C170.490122,350.915265 162.451592,349.643755 164.089469,346.238694 C165.468735,342.833633 172.688327,347.445551 171.244408,349.880816 Z M204.713143,343.738776 C203.247673,340.958694 214.540408,339.277714 213.312,344.363755 C212.88098,346.066286 205.532082,345.333551 204.713143,343.738776 Z M240.875755,343.781878 C237.061224,340.65698 242.836898,336.799347 245.272163,336.066612 C247.513469,337.230367 242.405878,345.010286 240.875755,343.781878 Z M284.128653,341.131102 C281.758041,343.221551 276.736653,337.014857 278.654694,335.269224 C280.335673,333.394286 285.723429,340.010449 284.128653,341.131102 Z M309.645061,344.536163 C307.705469,344.277551 307.231347,338.954449 308.912327,338.070857 C311.864816,336.540735 313.373388,345.031837 309.645061,344.536163 Z M339.019102,346.971429 C337.898449,343.523265 347.876571,338.264816 347.962776,342.122449 C348.027429,344.277551 341.583673,347.617959 339.019102,346.971429 Z M388.241633,350.031673 C384.987429,350.548898 381.927184,348.005878 382.013388,345.462857 C382.142694,340.269061 389.470041,346.497306 388.241633,350.031673 Z M411.516735,340.441469 C411.473633,337.338122 419.66302,337.338122 421.106939,339.730286 C420.50351,343.329306 411.516735,344.018939 411.516735,340.441469 Z M444.36049,337.812245 C440.244245,333.372735 446.666449,330.635755 447.463837,330.140082 C450.718041,330.74351 447.744,337.876898 444.36049,337.812245 Z M469.510531,316.002612 C469.445878,312.231184 473.648327,311.584653 476.493061,312.662204 C476.557714,316.110367 471.751837,317.812898 469.510531,316.002612 Z M492.31151,205.251918 C495.220898,203.721796 496.75102,212.212898 493.001143,211.717224 C491.061551,211.458612 490.587429,206.13551 492.31151,205.251918 Z M489.445224,294.904163 C488.367673,292.339592 489.509878,286.973388 492.785633,287.943184 C494.294204,291.111184 493.130449,295.766204 489.445224,294.904163 Z M494.466612,268.073143 C491.643429,267.448163 493.77698,262.297469 495.436408,261.823347 C498.194939,261.069061 498.065633,268.84898 494.466612,268.073143 Z M501.406041,234.022531 C499.897469,233.462204 499.444898,231.845878 499.509551,229.712327 C501.750857,227.902041 503.324082,233.009633 501.406041,234.022531 Z M37.0893061,181.890612 C39.2875102,181.179429 42.6925714,183.808653 40.8176327,186.847347 C39.4599184,189.024 35.3652245,188.161959 34.804898,186.200816 C34.1368163,183.787102 35.7746939,182.300082 37.0893061,181.869061 L37.0893061,181.869061 Z M73.4674286,181.028571 C76.010449,180.252735 79.9758367,183.140571 77.7776327,186.545633 C76.2044082,188.937796 71.4416327,188.011102 70.795102,185.812898 C70.0192653,183.162122 71.9373061,181.502694 73.4674286,181.028571 Z" id="JACKAL" fill="#2D2A26"></path>
        </g>
    </g>
</svg>