<svg style="fill-rule:evenodd;clip-rule:evenodd;stroke-linejoin:round;stroke-miterlimit:2;" xml:space="preserve" xmlns:xlink="http://www.w3.org/1999/xlink" xmlns="http://www.w3.org/2000/svg" version="1.1" viewBox="0 0 500 500" height="100%" width="100%">
    <g transform="matrix(1,0,0,1,314.527,372.874)">
        <g>
            <g>
                <path style="fill:rgb(255,87,87);fill-rule:nonzero;" d="M-190.583,-112.354C-190.542,-121.354 -188.359,-128.255 -184.042,-133.062C-179.734,-137.88 -174.505,-140.276 -168.354,-140.25C-163.521,-140.219 -158.859,-138.38 -154.375,-134.729C-149.901,-131.089 -146.797,-125.531 -145.063,-118.062C-143.146,-109.047 -139.125,-101.281 -133,-94.771C-126.875,-88.255 -119.594,-82.885 -111.167,-78.667C-102.734,-74.458 -94.068,-71.339 -85.167,-69.312C-76.276,-67.297 -68.104,-66.271 -60.646,-66.229C-46.354,-66.156 -33.479,-69.443 -22.021,-76.083C-10.563,-82.719 -0.193,-91.729 9.083,-103.104C18.375,-114.49 27.229,-127.193 35.646,-141.208C38.964,-145.583 42.5,-148.802 46.25,-150.875C50,-152.943 53.74,-153.964 57.479,-153.937C63.188,-153.906 68.167,-151.797 72.417,-147.604C76.677,-143.406 78.797,-138.125 78.771,-131.75C78.755,-129.776 78.469,-127.526 77.917,-125C77.359,-122.469 76.417,-120.005 75.083,-117.604C67.984,-105.323 60.125,-93.333 51.5,-81.625C42.875,-69.927 33.094,-59.437 22.167,-50.146C11.25,-40.865 -1.083,-33.51 -14.833,-28.083C-28.594,-22.667 -44.047,-20 -61.188,-20.083C-77.229,-20.167 -93.146,-22.823 -108.938,-28.062C-124.729,-33.312 -139.188,-40.802 -152.313,-50.542C-165.448,-60.276 -175.943,-71.865 -183.792,-85.312C-185.109,-87.505 -186.193,-90.526 -187.042,-94.375C-187.901,-98.234 -188.651,-101.979 -189.292,-105.604C-189.927,-109.229 -190.359,-111.479 -190.583,-112.354Z"></path>
            </g>
        </g>
    </g>
    <g transform="matrix(1,0,0,1,315.31,218.659)">
        <g>
            <g>
                <path style="fill:rgb(255,87,87);fill-rule:nonzero;" d="M-66.042,-39.875C-65.568,-45.375 -63.292,-50.255 -59.208,-54.521C-55.125,-58.781 -50.214,-62.167 -44.479,-64.667C-38.755,-67.167 -33.042,-68.401 -27.333,-68.375C-21.833,-68.344 -16.344,-66.062 -10.875,-61.521C-5.417,-56.99 -2.698,-51.542 -2.729,-45.167C-2.755,-40.109 -4.813,-35.396 -8.896,-31.021C-12.99,-26.656 -18.281,-23.172 -24.771,-20.562C-31.271,-17.948 -37.922,-16.667 -44.729,-16.708C-53.297,-16.75 -59,-19.026 -61.833,-23.542C-64.677,-28.068 -66.083,-33.51 -66.042,-39.875ZM-156.208,-65.708C-149.417,-64.802 -143.552,-62.25 -138.625,-58.042C-133.708,-53.844 -131.26,-49 -131.292,-43.5C-131.318,-36.469 -133.76,-30.385 -138.625,-25.25C-143.484,-20.125 -148.88,-17.573 -154.813,-17.604C-161.188,-17.63 -166.833,-19.964 -171.75,-24.604C-176.677,-29.24 -179.125,-34.859 -179.083,-41.458C-179.068,-45.625 -177.839,-49.51 -175.396,-53.125C-172.964,-56.734 -169.979,-59.734 -166.438,-62.125C-162.906,-64.526 -159.5,-65.719 -156.208,-65.708Z"></path>
            </g>
        </g>
    </g>
</svg>
